<svg xmlns="http://www.w3.org/2000/svg" viewBox="0 0 136.82 106.12">
  <defs>
    <style>
      .cls-1 {
        fill:#fff;
      }
      .cls-2{
        fill:#fff;
      }
    </style>
  </defs>
  <title>Logo_YistiShoes</title>
  <g id="Layer_2" data-name="Layer 2">
    <g id="Layer_1-2" data-name="Layer 1">
      <path class="cls-1" d="M115.73,73.88a1.31,1.31,0,0,0-1.75.59l12.92,6.77a2,2,0,0,0-.35-2L122,74.14c-1.22,2-2.33,1.81-2.91,1.5Z"/>
      <path class="cls-2" d="M101.17,64.73l-1.24,2.38,3.29,1.72a4.07,4.07,0,0,0-2-4.1Z"/>
      <path class="cls-1" d="M104.37,69.43l8.49,4.45a2.62,2.62,0,0,1,3.49-1.19l3.38,1.77c.46.24,1.1-.79,1.4-1.32l-2-2.19-2.58.88a.6.6,0,0,1-.49,0,.66.66,0,0,1-.31-.38.71.71,0,0,1,.44-.84l2-.69-.75-.85-.21.12-2.62.9a.6.6,0,0,1-.79-.41.69.69,0,0,1,.44-.84l2.27-.79-2.06-2.3a.59.59,0,0,0-.55-.2.69.69,0,0,0-.49.36c-.25.48-1.69.63-4-.58-1.92-1-3-2.56-2.76-2.95a.65.65,0,0,0-.25-.89l-1.12-.59a2,2,0,0,0-2.62.9l-.93,1.78a5.22,5.22,0,0,1,2.57,5.88Z"/>
      <path class="cls-1" d="M98.37,70.07a.66.66,0,0,0,.26.89l25.86,13.56a.66.66,0,0,0,.87-.3l.93-1.78-27-14.15Z"/>
      <path class="cls-2" d="M19.79,14.82c-2.59.64-4.61,1.09-6.6,1.66-4.08,1.16-7.57,3.21-8,7.85a11.48,11.48,0,0,0,6.27,11.76C16.4,38.81,22,39.63,27.25,41.25a26.5,26.5,0,0,1,7.69,3.42c2.18,1.57,2.64.84,3.63-1.05a72.87,72.87,0,0,0,7.56-20.23c2-9.69-5.1-21.33-13.44-17.8-6.82,2.88-7.08,9.18-7.82,15.18a39.78,39.78,0,0,0,0,4.77c-2.72-3.7-2.75-15.87-.13-20s9.4-6.4,15-5.33c6.39,1.22,12.13,7.23,13.41,14a22.72,22.72,0,0,1-.54,9.88,120.57,120.57,0,0,1-20.33,40.6c-6.89,8.82-18,11.06-26.67,5.5C0,66.61-1.72,59.16,1.91,54.09A7.26,7.26,0,0,1,9.33,51a6.7,6.7,0,0,1,5.87,4.52c-5.15,0-8.3,2.47-9,7.49a6.17,6.17,0,0,0,2.94,6.3,9.27,9.27,0,0,0,10.1.47C26.92,65.44,31,58.06,34.66,50.58c1.1-2.24-1.77-3.86-3.7-4.55-5.05-1.82-10.28-3.14-15.37-4.86s-10-3.73-13.08-8.37a11.54,11.54,0,0,1,0-13.21c3.47-5.48,8.87-5.9,14.59-5.25C17.83,14.42,18.51,14.58,19.79,14.82Z"/>
      <path class="cls-2" d="M112.09,36.07c-8.21-1.25-13.1,2.11-15.77,10.1-2,6.15-5.34,11.88-6.69,18.31-.3,1.41-.67,3.13.68,4.09s2.94.2,4.27-.58c3.19-1.9,5.48-4.17,5.84-8.37.63-7.21,4.32-13.53,6.93-20.16.21-.54.42-.61,1-.45,5.06,1.48,6.56,5.62,3.82,10.08-2.94,4.79-5.65,9.73-6.34,15.46-.17,1.46-.36,3.1,1.09,4s2.87.2,4.14-.57c3.39-2.08,5.5-5.22,7.11-8.77.29-.63.6-1.61,1.49-1.27s.45,1.26.24,1.93a22.16,22.16,0,0,1-5.42,9.78c-5,4.86-10.76,4-14-2.2-1.87,1.7-3.51,3.68-6,4.54-2.76,1-5.62,1.36-8-.75C83,68.1,83.83,64,84.51,60c1.32-7.57,4.36-14.6,7.18-22-5,.32-10.41,1.36-12.26-5-.69-2.37,1.31-4,3.33-5.14.94-.53,1.81-.31,2.59,1.1-2.56-.67-4,.24-3.57,2.63.49,2.63,2.79,2,4.66,2,7,0,10.14-4.26,11.66-10.53.32-1.32.29-4.32,2.36-3.68,3.4,1.06,6.84,2.94,5.62,7.73a19,19,0,0,1-.81,2.11c7.07-.84,14-1.58,20.94-1.08,8.09.58,11.69,3.8,10.33,9.44-.3,1.26-.7,1.48-1.92,1-4.85-1.77-10-2.15-15.06-2.61.92-1.78,1.13-3.56-.36-5.12a3.79,3.79,0,0,0-4.63-.85C112.11,31.35,111.85,33.65,112.09,36.07Z"/>
      <path class="cls-2" d="M43.66,62c0-10.16,7.24-21.83,7.88-25.13-.38.63,6.2,1.78,6.2,6.85A5.55,5.55,0,0,1,56.32,47c-3,5.46-6.71,11.8-6.71,17.26,0,1.9.25,3.17,2.19,3.17,3,0,7.75-3.3,11.24-11a.42.42,0,0,0,.26-.12,1.14,1.14,0,0,1,.9.38l.26.25c0-.38-2.71,14.34-13.56,14.34C45.86,71.22,43.66,66.65,43.66,62Z"/>
      <path class="cls-2" d="M81.77,39.62a4.53,4.53,0,0,1-.26,1.14c.13,4.06,2.46,10.28,3.36,18,0,8.63-7.62,13.08-14.47,13.08-7.75,0-11.49-5.72-11.49-9.78,0-2.53,1.29-4.69,3.74-5.07,3.23-5.21,7.88-14.09,10.59-18.66,0-1.52,1.3-5.2,2.46-5.2h-.13c0,.38,5,2.16,6.07,5.46A2.39,2.39,0,0,1,81.77,39.62ZM78.15,59.8c0-3.93-3.48-11.55-4.52-15.86-3,4.18-6.46,9-9,12.56a30.81,30.81,0,0,1,5.68-.76c.13,0,.13,0,.26.13a1,1,0,0,1,.26.76c0,1-8.78,1-8.78,4.95,0,1.9,3.23,5.58,7.49,5.58C73.5,67.16,78.15,64.37,78.15,59.8Z"/>
      <path class="cls-1" d="M58.17,36.2c-2.46,0-3.36-2-3.36-4.19a4.28,4.28,0,0,1,4.26-4.57c2.45,0,3.78,1.77,4.13,3.93A2.59,2.59,0,0,1,62.82,33,5.31,5.31,0,0,1,58.17,36.2Z"/>
      <path class="cls-1" d="M115.3,38.44c-2.45,0-3.36-2-3.36-4.19a4.28,4.28,0,0,1,4.26-4.57,4,4,0,0,1,4.14,3.94,5.18,5.18,0,0,1-.39,1.65A4.83,4.83,0,0,1,115.3,38.44Z"/>
      <path class="cls-2" d="M81.92,87.33c.54.09.43.8,1,.89.94.16,1.16-.51,1.29-1.3.27-1.64-.54-2.88-1.41-4.25a2.64,2.64,0,0,1-.5-2c.21-1.15.76-1.94,2-1.94h.32c.4,0,.67.13.6.54-.13.72-1.68-.49-2,1.55-.16.93.22,1.31.71,2.15.77,1.34,1.45,2.54,1.18,4.11-.2,1.2-.7,1.9-1.88,1.9a2.11,2.11,0,0,1-.35,0c-.51-.08-1.4-.58-1.4-1.18,0,0,0-.07,0-.1A.46.46,0,0,1,81.92,87.33Z"/>
      <path class="cls-2" d="M87.51,84.82v4.11c0,.66-.8.41-.83.22,0-.52,0-2.94,0-3.45,0-1.14.1-7,.12-8.13a.5.5,0,0,1,.41-.12c.2,0,.32.13.45.31,0,1.4-.13,3.39-.13,4.88,0,.2,0,1.13,0,1.32s.22.11.35.11c.56,0,1.11,0,1.65,0,.11-1.65.17-4.49.13-6.34v-.08c0-.22.17-.32.38-.32a.7.7,0,0,1,.48.29c0,.32,0,1.26-.06,1.56-.2,6.69.16,10.07-.32,10.09s-.51-.61-.51-1.59c0-.26-.07-2.62-.07-2.89Z"/>
      <path class="cls-2" d="M94.73,77.65c2.61.3,2.23,6.5,2.08,8.44-.1,1.07-.64,2.92-2.1,2.92C92.14,89,92,84.61,92,82.9S92.15,77.65,94.73,77.65Zm-1.88,5.19c0,4.27.79,5.44,1.82,5.44,1.43,0,1.44-3.7,1.44-4.62V83.6c0-1.12-.3-5.2-1.69-5.2-1.09,0-1.56,2.43-1.56,3.16C92.85,82,92.85,82.43,92.85,82.84Z"/>
      <path class="cls-2" d="M98.39,78.79a.54.54,0,0,1,.51-.51h2.3a.85.85,0,0,1,.4.29.22.22,0,0,1,0,.08c0,.29-.39.42-.63.42H99.23l.08,4.84,1.57-.24H101c.69,0,.43.67-.16.76l-1.45.22,0,3.8c.13,0,.63,0,.76,0,1,0,1.69-.34,1.73.33,0,.5-3.23.44-3.23.16Z"/>
      <path class="cls-2" d="M103.35,86.63c.58.18,0,1.46.75,1.88h.09c.82,0,1-1.12,1-1.72a6.09,6.09,0,0,0-.39-2.42c-.69-1.57-2.16-2.88-2.16-4.69,0-.82.5-2.17,1.5-2.17.64,0,1.71.51,1.71,1.27,0,.27-.09.43-.38.43-.57,0-.4-.87-1.2-.87s-.8,1-.8,1.54c0,1.48,1.24,2.51,1.89,3.73a5.61,5.61,0,0,1,.56,3.87c-.23.75-.89,1.79-1.78,1.79-1.08,0-1.41-1.34-1.41-2.22A.5.5,0,0,1,103.35,86.63Z"/>
      <path class="cls-1" d="M27.5,79.94l-1.26.74a2.28,2.28,0,0,0-.67-.8,1.62,1.62,0,0,0-.87-.21,1.55,1.55,0,0,0-1.07.37,1.12,1.12,0,0,0-.43.91c0,.5.38.9,1.12,1.21l1,.42a4.4,4.4,0,0,1,1.84,1.24,2.85,2.85,0,0,1,.58,1.79A3.18,3.18,0,0,1,26.82,88a3.27,3.27,0,0,1-2.37.93,3.16,3.16,0,0,1-2.22-.8,3.65,3.65,0,0,1-1.07-2.24l1.57-.34a2.74,2.74,0,0,0,.38,1.25,1.77,1.77,0,0,0,2.61.18,1.67,1.67,0,0,0,.48-1.23,1.92,1.92,0,0,0-.08-.55,1.61,1.61,0,0,0-.26-.46,2.32,2.32,0,0,0-.46-.4,5.86,5.86,0,0,0-.67-.35l-1-.41c-1.41-.6-2.12-1.47-2.12-2.61a2.5,2.5,0,0,1,.89-2,3.23,3.23,0,0,1,2.21-.78A3.07,3.07,0,0,1,27.5,79.94Z"/>
      <path class="cls-1" d="M29.13,83.51a5,5,0,0,1,1.6-3.73,5.36,5.36,0,0,1,7.59,0,5.31,5.31,0,0,1,0,7.56,5.46,5.46,0,0,1-7.44.17A5.05,5.05,0,0,1,29.13,83.51Zm1.57,0a3.82,3.82,0,0,0,6.52,2.79,3.82,3.82,0,0,0,1.12-2.76,3.75,3.75,0,0,0-1.11-2.76,3.84,3.84,0,0,0-5.42,0A3.69,3.69,0,0,0,30.7,83.53Z"/>
      <path class="cls-1" d="M49.48,79V80.8a4.33,4.33,0,0,0-2.79-1.13A3.57,3.57,0,0,0,44,80.81a3.85,3.85,0,0,0-1.09,2.78A3.77,3.77,0,0,0,44,86.33a3.61,3.61,0,0,0,2.68,1.11,3.27,3.27,0,0,0,1.4-.27,4.37,4.37,0,0,0,.66-.36,7.34,7.34,0,0,0,.73-.55v1.88a5.57,5.57,0,0,1-2.81.76,5.28,5.28,0,0,1-5.32-5.29,5.27,5.27,0,0,1,1.3-3.51,5.18,5.18,0,0,1,4.14-1.89A5.31,5.31,0,0,1,49.48,79Z"/>
      <path class="cls-1" d="M53,78.41v10.3H51.44V78.41Z"/>
      <path class="cls-1" d="M61.16,79.87H57v2.48h4v1.46H57v3.44h4.13v1.46H55.47V78.41h5.69Z"/>
      <path class="cls-1" d="M66.05,79.87v8.84H64.49V79.87H62.12V78.41h6.29v1.46Z"/>
      <path class="cls-1" d="M72.55,84.26l-3.37-5.85H71l2.36,4.12,2.36-4.12h1.79L74.1,84.26v4.45H72.55Z"/>
      <g id="_Group_" data-name="&lt;Group&gt;">
        <path class="cls-1" d="M5.27,102a10.54,10.54,0,0,1,1.12-1.21c.35-.35.72-.67,1.09-1A23,23,0,0,1,9.8,98.09a28.3,28.3,0,0,1,5-2.5,36.38,36.38,0,0,1,10.59-2.28c7.14-.55,14.2.75,20.8,2.47s13.29,3.24,20,4.44a51.26,51.26,0,0,0,10.11.92,26.55,26.55,0,0,0,9.89-2.25,26.81,26.81,0,0,1-9.85,2.88,52.41,52.41,0,0,1-10.33-.3c-6.84-.8-13.58-2-20.33-3.22a89.94,89.94,0,0,0-10-1.42,47.88,47.88,0,0,0-9.88.24,32.87,32.87,0,0,0-9.27,2.59,23.42,23.42,0,0,0-4,2.35,17.64,17.64,0,0,0-1.75,1.44c-.28.25-.54.52-.78.78a6.1,6.1,0,0,0-.58.71,2.53,2.53,0,1,1-4.28-2.7l.15-.22Z"/>
      </g>
    </g>
  </g>
</svg>